<?xml version="1.0" encoding="utf-8"?>
<!-- Generator: Adobe Illustrator 18.1.0, SVG Export Plug-In . SVG Version: 6.00 Build 0)  -->
<!DOCTYPE svg PUBLIC "-//W3C//DTD SVG 1.1//EN" "http://www.w3.org/Graphics/SVG/1.1/DTD/svg11.dtd">
<svg version="1.1" id="Layer_1" xmlns="http://www.w3.org/2000/svg" xmlns:xlink="http://www.w3.org/1999/xlink" x="0px" y="0px"
	 viewBox="0 0 114 42" enable-background="new 0 0 114 42" xml:space="preserve">
<path d="M37,14c0,3.3-2.7,6-6,6s-6-2.7-6-6s2.7-14,6-14S37,10.7,37,14z"/>
<path fill="#FFA1A1" d="M36.9,20.9c0.6,3.3-2.3,2.4-5.6,3c-3.3,0.6-5.7,2.3-6.3-0.9c-0.6-3.3,2-4.4,5.2-5
	C33.6,17.5,36.3,17.7,36.9,20.9z"/>
<path d="M89,13c0,3.3-2.7,7-6,7s-6-3.7-6-7s2.7-13,6-13S89,9.7,89,13z"/>
<path fill="#FFA1A1" d="M77.1,20.9c-0.6,3.3,2.3,2.4,5.6,3c3.3,0.6,5.7,2.3,6.3-0.9c0.6-3.3-2-4.4-5.2-5
	C80.4,17.5,77.7,17.7,77.1,20.9z"/>
<path d="M31,24.1c0,0-1.6,0.3-3.9,0.3c-1.2,0-2.5,0-3.9-0.2c-1.4-0.2-2.9-0.5-4.4-0.8c-3-0.5-6-1-8.3-1.4c-2.3-0.4-3.8-0.7-3.8-0.7
	l0-0.2c0,0,1.5,0.1,3.8,0.2c2.3,0.1,5.4,0.3,8.4,0.5c1.5,0.1,3.1,0.1,4.5,0.3c1.4,0.2,2.7,0.4,3.9,0.7c2.3,0.5,3.7,1.1,3.7,1.1
	L31,24.1z"/>
<path d="M29,27.3c0,0-1.7,0.7-4.2,1.4c-1.3,0.3-2.8,0.7-4.4,0.9c-1.6,0.2-3.4,0.3-5.1,0.5c-3.5,0.4-6.9,0.8-9.5,1
	c-2.6,0.2-4.3,0.4-4.3,0.4l0-0.2c0,0,1.7-0.4,4.3-0.9c2.6-0.6,6-1.2,9.4-1.9c1.7-0.3,3.4-0.7,5-1c1.6-0.2,3.1-0.4,4.4-0.4
	c2.6-0.1,4.4,0,4.4,0L29,27.3z"/>
<path d="M82.9,23.9c0,0,1.5-0.6,3.7-1.1c1.1-0.3,2.4-0.5,3.9-0.7c1.4-0.1,3-0.2,4.5-0.3c3.1-0.2,6.1-0.4,8.4-0.5
	c2.3-0.1,3.8-0.2,3.8-0.2l0,0.2c0,0-1.5,0.3-3.8,0.7c-2.3,0.4-5.3,0.9-8.3,1.4c-1.5,0.2-3,0.6-4.4,0.8c-1.4,0.2-2.8,0.2-3.9,0.2
	c-2.3,0-3.9-0.3-3.9-0.3L82.9,23.9z"/>
<path d="M85,27.1c0,0,1.8-0.2,4.4,0c1.3,0.1,2.8,0.2,4.4,0.4c1.6,0.3,3.3,0.7,5,1c3.4,0.7,6.8,1.3,9.4,1.9c2.6,0.5,4.3,0.9,4.3,0.9
	l0,0.2c0,0-1.7-0.2-4.3-0.4c-2.6-0.2-6.1-0.6-9.5-1c-1.7-0.2-3.5-0.3-5.1-0.5c-1.6-0.3-3.1-0.6-4.4-0.9C86.7,28,85,27.3,85,27.3
	L85,27.1z"/>
<circle fill="#FFFFFF" cx="28" cy="10" r="1.5"/>
<circle fill="#FFFFFF" cx="32" cy="7" r="2.5"/>
<circle fill="#FFFFFF" cx="80" cy="10" r="1.5"/>
<circle fill="#FFFFFF" cx="84" cy="7" r="2.5"/>
<path d="M70.5,37.6c-0.4-0.4-1-0.4-1.4,0c-2.5,2.5-6.7,2.5-9.2,0C58.7,36.4,58,34.7,58,33c0-0.6-0.4-1-1-1s-1,0.4-1,1
	c0,1.7-0.7,3.4-1.9,4.6c-2.5,2.5-6.7,2.5-9.2,0c-0.4-0.4-1-0.4-1.4,0s-0.4,1,0,1.4c1.7,1.7,3.8,2.5,6,2.5s4.4-0.8,6-2.5
	c0.6-0.6,1.1-1.3,1.5-2c0.4,0.7,0.9,1.4,1.5,2c1.7,1.7,3.8,2.5,6,2.5s4.4-0.8,6-2.5C70.9,38.6,70.9,38,70.5,37.6z"/>
</svg>